<?xml version="1.0" encoding="UTF-8"?>
<svg width="24px" height="24px" viewBox="0 0 24 24" version="1.1" xmlns="http://www.w3.org/2000/svg" xmlns:xlink="http://www.w3.org/1999/xlink">
    <title>D0623E84-54D8-46F8-BAD6-90721AE46EC8</title>
    <defs>
        <path d="M18.8226684,0 C21.3097725,0 23.3325071,2.02190824 23.3325071,4.50901236 L23.3325071,18.8234947 C23.3325071,21.3114251 21.3097725,23.3333333 18.8234947,23.3333333 L4.50901236,23.3333333 C2.02190824,23.3333333 3.55271368e-15,21.3114251 3.55271368e-15,18.8234947 L3.55271368e-15,4.50901236 C3.55271368e-15,2.02190824 2.02190824,0 4.50901236,0 L18.8226684,0 Z M5.75504326,9.27169281 L2.27227121,9.27169281 L2.27227121,18.8234947 C2.27227121,20.0579577 3.27454938,21.057757 4.50818608,21.057757 L18.8218421,21.057757 C20.0538263,21.057757 21.057757,20.0579577 21.057757,18.8234947 L21.057757,9.27169281 L17.5733324,9.27169281 C17.8765773,10.0103875 18.0476174,10.8193161 18.0476174,11.6654272 C18.0476174,15.1829031 15.1853819,18.0467911 11.6662535,18.0467911 C8.14712513,18.0467911 5.28571597,15.1829031 5.28571597,11.6654272 C5.28571597,10.8193161 5.45427718,10.0103875 5.75504326,9.27169281 Z M11.6679061,7.55881346 C10.2971068,7.55881346 9.08495343,8.23636342 8.33716964,9.27086653 C7.85131674,9.94511137 7.5612923,10.7705655 7.56046602,11.664601 C7.55798718,13.9294357 9.40141884,15.772041 11.6654272,15.772041 C13.9286094,15.772041 15.7736936,13.9302619 15.7736936,11.6654272 C15.7736936,10.7713918 15.4811903,9.94593765 14.99699,9.27169281 C14.2508587,8.2371897 13.0378791,7.55881346 11.6679061,7.55881346 Z M20.6330489,2.68706399 L20.1182761,2.68871655 L16.6776444,2.6994582 L16.6908649,6.65486266 L20.6330489,6.64164217 L20.6330489,2.68706399 Z" id="path-1"></path>
    </defs>
    <g id="Design-Pages" stroke="none" stroke-width="1" fill="none" fill-rule="evenodd">
        <g id="OGO--Comp-with-content." transform="translate(-925.000000, -6965.000000)">
            <g id="Contact-#2" transform="translate(0.000000, 6503.000000)">
                <g id="Atoms-/-icons-/-System-/-SM-instagram" transform="translate(925.333333, 462.333333)">
                    <mask id="mask-2" fill="white">
                        <use xlink:href="#path-1"></use>
                    </mask>
                    <use id="Combined-Shape2" fill="#000000" fill-rule="nonzero" xlink:href="#path-1"></use>
                    <g id="↪🎨" mask="url(#mask-2)" fill="#3BB4C4">
                        <g transform="translate(-8.333333, -8.333333)" id="Atoms-/-Colors-/-Black">
                            <rect x="0" y="0" width="40" height="40"></rect>
                        </g>
                    </g>
                </g>
            </g>
        </g>
    </g>
</svg>