<svg xmlns="http://www.w3.org/2000/svg" xmlns:xlink="http://www.w3.org/1999/xlink" viewBox="0 0 31 24"><defs><path id="a" d="M3.167 20.797c-.53 1.091.019 1.976 1.247 1.976h4.42l4.416-9.109V2.195A2.198 2.198 0 0 0 11.047 0H2.203A2.199 2.199 0 0 0 0 2.195v9.274c0 1.212.978 2.195 2.206 2.195h4.419l-3.458 7.133Zm17.666 0c-.529 1.091.02 1.976 1.248 1.976H26.5l4.417-9.109V2.195A2.198 2.198 0 0 0 28.714 0H19.87a2.199 2.199 0 0 0-2.203 2.195v9.274c0 1.212.977 2.195 2.206 2.195h4.419l-3.459 7.133Z"/></defs><g fill="none" fill-rule="evenodd" transform="translate(.042 .754)"><mask id="b" fill="#fff"><use xlink:href="#a"/></mask><use xlink:href="#a" fill="#fff" fill-opacity=".7" transform="rotate(-180 15.458 11.387)"/><g fill="#3BB4C4" mask="url(#b)"><path d="M-11.042-15.941h53v54.656h-53z"/></g></g></svg>