<svg width="35" height="10" viewBox="0 0 35 10" fill="none" xmlns="http://www.w3.org/2000/svg">
<path d="M6.482 0.368C6.482 0.321333 6.496 0.284 6.524 0.255999C6.56133 0.218666 6.60333 0.199999 6.65 0.199999H8.288C8.33467 0.199999 8.372 0.218666 8.4 0.255999C8.43733 0.284 8.456 0.321333 8.456 0.368V9.832C8.456 9.87867 8.43733 9.92067 8.4 9.958C8.372 9.986 8.33467 10 8.288 10H6.706C6.61267 10 6.54733 9.96267 6.51 9.888L2.884 3.896C2.86533 3.868 2.84667 3.85867 2.828 3.868C2.80933 3.868 2.8 3.88667 2.8 3.924L2.828 9.832C2.828 9.87867 2.80933 9.92067 2.772 9.958C2.744 9.986 2.70667 10 2.66 10H1.022C0.975333 10 0.933333 9.986 0.896 9.958C0.868 9.92067 0.854 9.87867 0.854 9.832V0.368C0.854 0.321333 0.868 0.284 0.896 0.255999C0.933333 0.218666 0.975333 0.199999 1.022 0.199999H2.604C2.69733 0.199999 2.76267 0.237333 2.8 0.312L6.412 6.276C6.43067 6.304 6.44933 6.318 6.468 6.318C6.48667 6.30867 6.496 6.28533 6.496 6.248L6.482 0.368ZM16.8865 1.726C16.8865 1.77267 16.8678 1.81467 16.8305 1.852C16.8025 1.88 16.7652 1.894 16.7185 1.894H12.1265C12.0798 1.894 12.0565 1.91733 12.0565 1.964V4.134C12.0565 4.18067 12.0798 4.204 12.1265 4.204H15.1365C15.1832 4.204 15.2205 4.22267 15.2485 4.26C15.2858 4.288 15.3045 4.32533 15.3045 4.372V5.73C15.3045 5.77667 15.2858 5.81867 15.2485 5.856C15.2205 5.884 15.1832 5.898 15.1365 5.898H12.1265C12.0798 5.898 12.0565 5.92133 12.0565 5.968V8.236C12.0565 8.28267 12.0798 8.306 12.1265 8.306H16.7185C16.7652 8.306 16.8025 8.32467 16.8305 8.362C16.8678 8.39 16.8865 8.42733 16.8865 8.474V9.832C16.8865 9.87867 16.8678 9.92067 16.8305 9.958C16.8025 9.986 16.7652 10 16.7185 10H10.2505C10.2038 10 10.1618 9.986 10.1245 9.958C10.0965 9.92067 10.0825 9.87867 10.0825 9.832V0.368C10.0825 0.321333 10.0965 0.284 10.1245 0.255999C10.1618 0.218666 10.2038 0.199999 10.2505 0.199999H16.7185C16.7652 0.199999 16.8025 0.218666 16.8305 0.255999C16.8678 0.284 16.8865 0.321333 16.8865 0.368V1.726ZM17.9783 10C17.913 10 17.8663 9.98133 17.8383 9.944C17.8103 9.90667 17.815 9.86 17.8523 9.804L20.5683 5.142C20.587 5.114 20.587 5.086 20.5683 5.058L17.8523 0.395999L17.8243 0.312C17.8243 0.237333 17.8756 0.199999 17.9783 0.199999H19.7563C19.8496 0.199999 19.9196 0.237333 19.9663 0.312L21.7863 3.518C21.8143 3.574 21.8423 3.574 21.8703 3.518L23.6903 0.312C23.737 0.237333 23.807 0.199999 23.9003 0.199999H25.6643C25.7296 0.199999 25.7763 0.218666 25.8043 0.255999C25.8323 0.293333 25.8276 0.339999 25.7903 0.395999L23.0743 5.058C23.065 5.086 23.065 5.114 23.0743 5.142L25.7903 9.804L25.8183 9.888C25.8183 9.96267 25.767 10 25.6643 10H23.9003C23.807 10 23.737 9.96267 23.6903 9.888L21.8703 6.696C21.8423 6.64 21.8143 6.64 21.7863 6.696L19.9523 9.888C19.9056 9.96267 19.8356 10 19.7423 10H17.9783ZM33.8523 0.199999C33.899 0.199999 33.9363 0.218666 33.9643 0.255999C34.0017 0.284 34.0203 0.321333 34.0203 0.368V1.74C34.0203 1.78667 34.0017 1.82867 33.9643 1.866C33.9363 1.894 33.899 1.908 33.8523 1.908H31.3463C31.2997 1.908 31.2763 1.93133 31.2763 1.978V9.832C31.2763 9.87867 31.2577 9.92067 31.2203 9.958C31.1923 9.986 31.155 10 31.1083 10H29.4703C29.4237 10 29.3817 9.986 29.3443 9.958C29.3163 9.92067 29.3023 9.87867 29.3023 9.832V1.978C29.3023 1.93133 29.279 1.908 29.2323 1.908H26.7963C26.7497 1.908 26.7077 1.894 26.6703 1.866C26.6423 1.82867 26.6283 1.78667 26.6283 1.74V0.368C26.6283 0.321333 26.6423 0.284 26.6703 0.255999C26.7077 0.218666 26.7497 0.199999 26.7963 0.199999H33.8523Z" fill="#3CB5CD"/>
</svg>
