<svg width="63" height="11" viewBox="0 0 63 11" fill="none" xmlns="http://www.w3.org/2000/svg">
<path d="M4.47617 0.186C5.09217 0.186 5.63351 0.312 6.10017 0.564C6.56684 0.816 6.92617 1.17533 7.17817 1.642C7.43951 2.09933 7.57017 2.62667 7.57017 3.224C7.57017 3.812 7.43484 4.33 7.16417 4.778C6.90284 5.226 6.52951 5.576 6.04417 5.828C5.56817 6.07067 5.01751 6.192 4.39217 6.192H2.40417C2.35751 6.192 2.33417 6.21533 2.33417 6.262V9.832C2.33417 9.87867 2.31551 9.92067 2.27817 9.958C2.25017 9.986 2.21284 10 2.16617 10H0.528172C0.481505 10 0.439505 9.986 0.402172 9.958C0.374172 9.92067 0.360172 9.87867 0.360172 9.832V0.354C0.360172 0.307333 0.374172 0.27 0.402172 0.242C0.439505 0.204666 0.481505 0.186 0.528172 0.186H4.47617ZM4.18217 4.61C4.61151 4.61 4.95684 4.48867 5.21817 4.246C5.47951 3.994 5.61017 3.66733 5.61017 3.266C5.61017 2.85533 5.47951 2.524 5.21817 2.272C4.95684 2.02 4.61151 1.894 4.18217 1.894H2.40417C2.35751 1.894 2.33417 1.91733 2.33417 1.964V4.54C2.33417 4.58667 2.35751 4.61 2.40417 4.61H4.18217ZM14.1597 10C14.0664 10 14.001 9.958 13.9637 9.874L12.2137 5.996C12.195 5.95867 12.167 5.94 12.1297 5.94H10.8277C10.781 5.94 10.7577 5.96333 10.7577 6.01V9.832C10.7577 9.87867 10.739 9.92067 10.7017 9.958C10.6737 9.986 10.6364 10 10.5897 10H8.95169C8.90502 10 8.86302 9.986 8.82569 9.958C8.79769 9.92067 8.78369 9.87867 8.78369 9.832V0.368C8.78369 0.321333 8.79769 0.284 8.82569 0.255999C8.86302 0.218666 8.90502 0.199999 8.95169 0.199999H12.9557C13.553 0.199999 14.0757 0.321333 14.5237 0.564C14.981 0.806667 15.331 1.152 15.5737 1.6C15.8257 2.048 15.9517 2.566 15.9517 3.154C15.9517 3.78867 15.793 4.33467 15.4757 4.792C15.1584 5.24 14.715 5.55733 14.1457 5.744C14.099 5.76267 14.085 5.79533 14.1037 5.842L16.0077 9.804C16.0264 9.84133 16.0357 9.86933 16.0357 9.888C16.0357 9.96267 15.9844 10 15.8817 10H14.1597ZM10.8277 1.894C10.781 1.894 10.7577 1.91733 10.7577 1.964V4.358C10.7577 4.40467 10.781 4.428 10.8277 4.428H12.6617C13.0537 4.428 13.371 4.31133 13.6137 4.078C13.8657 3.84467 13.9917 3.54133 13.9917 3.168C13.9917 2.79467 13.8657 2.49133 13.6137 2.258C13.371 2.01533 13.0537 1.894 12.6617 1.894H10.8277ZM24.1873 1.726C24.1873 1.77267 24.1686 1.81467 24.1313 1.852C24.1033 1.88 24.066 1.894 24.0193 1.894H19.4273C19.3806 1.894 19.3573 1.91733 19.3573 1.964V4.134C19.3573 4.18067 19.3806 4.204 19.4273 4.204H22.4373C22.484 4.204 22.5213 4.22267 22.5493 4.26C22.5866 4.288 22.6053 4.32533 22.6053 4.372V5.73C22.6053 5.77667 22.5866 5.81867 22.5493 5.856C22.5213 5.884 22.484 5.898 22.4373 5.898H19.4273C19.3806 5.898 19.3573 5.92133 19.3573 5.968V8.236C19.3573 8.28267 19.3806 8.306 19.4273 8.306H24.0193C24.066 8.306 24.1033 8.32467 24.1313 8.362C24.1686 8.39 24.1873 8.42733 24.1873 8.474V9.832C24.1873 9.87867 24.1686 9.92067 24.1313 9.958C24.1033 9.986 24.066 10 24.0193 10H17.5513C17.5046 10 17.4626 9.986 17.4253 9.958C17.3973 9.92067 17.3833 9.87867 17.3833 9.832V0.368C17.3833 0.321333 17.3973 0.284 17.4253 0.255999C17.4626 0.218666 17.5046 0.199999 17.5513 0.199999H24.0193C24.066 0.199999 24.1033 0.218666 24.1313 0.255999C24.1686 0.284 24.1873 0.321333 24.1873 0.368V1.726ZM28.2451 10C28.1518 10 28.0911 9.95333 28.0631 9.86L25.1791 0.395999L25.1651 0.339999C25.1651 0.246666 25.2164 0.199999 25.3191 0.199999H27.0831C27.1858 0.199999 27.2511 0.246666 27.2791 0.339999L29.1411 7.172C29.1504 7.2 29.1644 7.214 29.1831 7.214C29.2018 7.214 29.2158 7.2 29.2251 7.172L31.0591 0.339999C31.0871 0.246666 31.1524 0.199999 31.2551 0.199999H32.9771C33.0331 0.199999 33.0751 0.218666 33.1031 0.255999C33.1311 0.293333 33.1358 0.339999 33.1171 0.395999L30.1911 9.86C30.1631 9.95333 30.1024 10 30.0091 10H28.2451ZM34.5181 10C34.4714 10 34.4294 9.986 34.3921 9.958C34.3641 9.92067 34.3501 9.87867 34.3501 9.832V0.368C34.3501 0.321333 34.3641 0.284 34.3921 0.255999C34.4294 0.218666 34.4714 0.199999 34.5181 0.199999H36.1561C36.2028 0.199999 36.2401 0.218666 36.2681 0.255999C36.3054 0.284 36.3241 0.321333 36.3241 0.368V9.832C36.3241 9.87867 36.3054 9.92067 36.2681 9.958C36.2401 9.986 36.2028 10 36.1561 10H34.5181ZM41.5138 10.154C40.7858 10.154 40.1418 10.0047 39.5818 9.706C39.0312 9.40733 38.6018 8.992 38.2938 8.46C37.9858 7.91867 37.8318 7.298 37.8318 6.598V3.602C37.8318 2.91133 37.9858 2.3 38.2938 1.768C38.6018 1.236 39.0312 0.825333 39.5818 0.535999C40.1418 0.237333 40.7858 0.0879999 41.5138 0.0879999C42.2512 0.0879999 42.8952 0.237333 43.4458 0.535999C44.0058 0.825333 44.4398 1.236 44.7478 1.768C45.0558 2.3 45.2098 2.91133 45.2098 3.602V6.598C45.2098 7.298 45.0558 7.91867 44.7478 8.46C44.4398 9.00133 44.0058 9.42133 43.4458 9.72C42.8952 10.0093 42.2512 10.154 41.5138 10.154ZM41.5138 8.46C42.0272 8.46 42.4425 8.29667 42.7598 7.97C43.0772 7.64333 43.2358 7.20933 43.2358 6.668V3.588C43.2358 3.04667 43.0772 2.61267 42.7598 2.286C42.4518 1.95 42.0365 1.782 41.5138 1.782C41.0005 1.782 40.5852 1.95 40.2678 2.286C39.9598 2.61267 39.8058 3.04667 39.8058 3.588V6.668C39.8058 7.20933 39.9598 7.64333 40.2678 7.97C40.5852 8.29667 41.0005 8.46 41.5138 8.46ZM50.2791 10.112C49.5605 10.112 48.9258 9.972 48.3751 9.692C47.8338 9.412 47.4091 9.02 47.1011 8.516C46.8025 8.00267 46.6531 7.41467 46.6531 6.752V0.368C46.6531 0.321333 46.6671 0.284 46.6951 0.255999C46.7325 0.218666 46.7745 0.199999 46.8211 0.199999H48.4591C48.5058 0.199999 48.5431 0.218666 48.5711 0.255999C48.6085 0.284 48.6271 0.321333 48.6271 0.368V6.766C48.6271 7.26067 48.7765 7.662 49.0751 7.97C49.3831 8.26867 49.7845 8.418 50.2791 8.418C50.7738 8.418 51.1705 8.26867 51.4691 7.97C51.7771 7.662 51.9311 7.26067 51.9311 6.766V0.368C51.9311 0.321333 51.9451 0.284 51.9731 0.255999C52.0105 0.218666 52.0525 0.199999 52.0991 0.199999H53.7371C53.7838 0.199999 53.8211 0.218666 53.8491 0.255999C53.8865 0.284 53.9051 0.321333 53.9051 0.368V6.752C53.9051 7.41467 53.7511 8.00267 53.4431 8.516C53.1445 9.02 52.7198 9.412 52.1691 9.692C51.6278 9.972 50.9978 10.112 50.2791 10.112ZM58.8878 10.112C58.1412 10.112 57.4878 9.99533 56.9278 9.762C56.3678 9.51933 55.9338 9.17867 55.6258 8.74C55.3272 8.292 55.1778 7.774 55.1778 7.186V6.878C55.1778 6.83133 55.1918 6.794 55.2198 6.766C55.2572 6.72867 55.2992 6.71 55.3458 6.71H56.9418C56.9885 6.71 57.0258 6.72867 57.0538 6.766C57.0912 6.794 57.1098 6.83133 57.1098 6.878V7.088C57.1098 7.46133 57.2825 7.77867 57.6278 8.04C57.9732 8.292 58.4398 8.418 59.0278 8.418C59.5225 8.418 59.8912 8.31533 60.1338 8.11C60.3765 7.89533 60.4978 7.634 60.4978 7.326C60.4978 7.102 60.4232 6.91533 60.2738 6.766C60.1245 6.60733 59.9192 6.472 59.6578 6.36C59.4058 6.23867 58.9998 6.07533 58.4398 5.87C57.8145 5.65533 57.2825 5.436 56.8438 5.212C56.4145 4.988 56.0505 4.68467 55.7518 4.302C55.4625 3.91 55.3178 3.42933 55.3178 2.86C55.3178 2.3 55.4625 1.81 55.7518 1.39C56.0412 0.97 56.4425 0.648 56.9558 0.424C57.4692 0.2 58.0618 0.0879999 58.7338 0.0879999C59.4432 0.0879999 60.0732 0.214 60.6238 0.465999C61.1838 0.717999 61.6178 1.07267 61.9258 1.53C62.2432 1.978 62.4018 2.50067 62.4018 3.098V3.308C62.4018 3.35467 62.3832 3.39667 62.3458 3.434C62.3178 3.462 62.2805 3.476 62.2338 3.476H60.6238C60.5772 3.476 60.5352 3.462 60.4978 3.434C60.4698 3.39667 60.4558 3.35467 60.4558 3.308V3.196C60.4558 2.804 60.2925 2.47267 59.9658 2.202C59.6485 1.922 59.2098 1.782 58.6498 1.782C58.2112 1.782 57.8658 1.87533 57.6138 2.062C57.3712 2.24867 57.2498 2.50533 57.2498 2.832C57.2498 3.06533 57.3198 3.26133 57.4598 3.42C57.6092 3.57867 57.8238 3.72333 58.1038 3.854C58.3932 3.97533 58.8365 4.14333 59.4338 4.358C60.0965 4.60067 60.6145 4.81533 60.9878 5.002C61.3705 5.18867 61.7112 5.46867 62.0098 5.842C62.3178 6.206 62.4718 6.682 62.4718 7.27C62.4718 8.14733 62.1498 8.84267 61.5058 9.356C60.8618 9.86 59.9892 10.112 58.8878 10.112Z" fill="#3CB5CD"/>
</svg>
