<svg width="16" height="16" viewBox="0 0 16 16" fill="none" xmlns="http://www.w3.org/2000/svg">
<path d="M14.3402 9.95851V15.9336H0V1.65975H5.9751C6.50622 1.65975 6.97095 2.12448 6.97095 2.6556C6.97095 3.18672 6.57261 3.65145 5.9751 3.65145H1.9917V13.9419H12.2822V9.95851C12.2822 9.42739 12.7469 8.96266 13.278 8.96266C13.8091 8.96266 14.3402 9.361 14.3402 9.95851ZM9.95851 0C9.42739 0 8.96266 0.46473 8.96266 0.995851C8.96266 1.52697 9.42739 1.9917 9.95851 1.9917H12.7469L8.36514 6.37344C7.9668 6.77178 7.9668 7.36929 8.36514 7.76763C8.56431 7.9668 8.82988 8.0332 9.09544 8.0332C9.361 8.0332 9.62656 7.9668 9.82573 7.76763L14.0083 3.51867V5.84232C14.0083 6.37344 14.473 6.83817 15.0041 6.83817C15.5353 6.83817 16 6.43983 16 5.84232V0H9.95851Z" fill="#3CB5CD"/>
</svg>
